PathFileType	4	(X/Y/Z)	/Users/itak/Documents/Research/Walk-IL/dataset/trc/00142_00007.trc
DataRate	CameraRate	NumFrames	NumMarkers	Units	OrigDataRate	OrigDataStartFrame	OrigNumFrames
100.000000	100.000000	4	53	mm	100.000000	472	540
Frame#	Time	RPSI			LPSI			L3			STRN			T10			C7			CLAV			RBAK			LBAK			LSHO			LUPA			LAEL			LAOL			LWTS			LWPS			LFRA			LIFD			LHPS			LHTS			RSHO			RUPA			RAEL			RAOL			RWTS			RWPS			RFRA			RIFD			RHTS			RHPS			RBHD			LFHD			RFHD			LBHD			LHIP			RHIP			RASI			LASI			LKNE			LTHI			LANK			LTIP			LTOE			LMT1			LMT5			LHEE			RKNE			RTHI			RANK			RTIP			RTOE			RMT1			RMT5			RHEE			
		X1	Y1	Z1	X2	Y2	Z2	X3	Y3	Z3	X4	Y4	Z4	X5	Y5	Z5	X6	Y6	Z6	X7	Y7	Z7	X8	Y8	Z8	X9	Y9	Z9	X10	Y10	Z10	X11	Y11	Z11	X12	Y12	Z12	X13	Y13	Z13	X14	Y14	Z14	X15	Y15	Z15	X16	Y16	Z16	X17	Y17	Z17	X18	Y18	Z18	X19	Y19	Z19	X20	Y20	Z20	X21	Y21	Z21	X22	Y22	Z22	X23	Y23	Z23	X24	Y24	Z24	X25	Y25	Z25	X26	Y26	Z26	X27	Y27	Z27	X28	Y28	Z28	X29	Y29	Z29	X30	Y30	Z30	X31	Y31	Z31	X32	Y32	Z32	X33	Y33	Z33	X34	Y34	Z34	X35	Y35	Z35	X36	Y36	Z36	X37	Y37	Z37	X38	Y38	Z38	X39	Y39	Z39	X40	Y40	Z40	X41	Y41	Z41	X42	Y42	Z42	X43	Y43	Z43	X44	Y44	Z44	X45	Y45	Z45	X46	Y46	Z46	X47	Y47	Z47	X48	Y48	Z48	X49	Y49	Z49	X50	Y50	Z50	X51	Y51	Z51	X52	Y52	Z52	X53	Y53	Z53	

473	4.72	893.2998046875	1121.362182617188	81.48721313476562	757.4326782226562	1119.94091796875	81.93903350830078	822.8978881835938	1150.244506835938	89.95870208740234	815.2242431640625	1362.725341796875	-114.0266876220703	823.6865844726562	1298.118041992188	132.6178588867188	800.5016479492188	1592.70166015625	123.674201965332	807.0030517578125	1494.178100585938	-67.30556488037109	894.6641845703125	1406.892700195312	161.4460906982422	700.8539428710938	1566.748413085938	131.5184783935547	628.9837646484375	1555.27734375	45.95430755615234	566.695556640625	1419.872192382812	69.07926177978516	550.88623046875	1202.366088867188	60.75824356079102	624.1802978515625	1189.755249023438	111.5184478759766	570.6768798828125	944.97265625	-48.1912956237793	570.0853881835938	918.8442993164062	38.13465118408203	545.3228759765625	1085.923950195312	45.71317672729492	588.4520874023438	750.4539184570312	-67.43397521972656	564.0242309570312	843.6971435546875	10.72117042541504	558.8095092773438	855.6741333007812	-59.29307174682617	980.1006469726562	1584.23095703125	62.18532943725586	1046.839599609375	1512.488403320312	70.93790435791016	1085.63916015625	1220.274291992188	36.70960235595703	990.989501953125	1212.339111328125	43.1335334777832	1090.130004882812	1019.118041992188	-161.4669036865234	1120.87158203125	986.1470947265625	-92.48505401611328	1106.22900390625	1155.319213867188	-3.202494859695435	1091.18994140625	838.8441772460938	-239.6990661621094	1104.29150390625	924.1192626953125	-216.8538208007812	1132.41064453125	900.58154296875	-154.2191772460938	870.0836181640625	1773.606201171875	83.7547607421875	722.083740234375	1835.681640625	-67.76931762695312	851.7177124023438	1850.416748046875	-76.11379241943359	738.1264038085938	1763.379272460938	100.8055038452148	648.3572998046875	1034.416748046875	-15.59644222259521	1011.5126953125	1031.938720703125	-51.12446594238281	957.515625	1107.772705078125	-129.6063537597656	690.8148803710938	1103.184936523438	-119.7888793945312	681.3562622070312	534.6376342773438	-117.7351760864258	653.9392700195312	679.4601440429688	-72.59954071044922	670.3545532226562	37.93893432617188	36.22821426391602	645.9653930664062	291.2109069824219	0.5674900412559509	743.6624755859375	36.42201614379883	-187.7373809814453	772.696533203125	38.91200256347656	-104.9626159667969	654.0150146484375	35.18679428100586	-91.089111328125	725.95556640625	39.01803970336914	111.1006774902344	969.5595092773438	537.959716796875	-39.4076042175293	998.9894409179688	816.8352661132812	-71.50135803222656	935.6400146484375	26.59325218200684	56.38705825805664	976.5192260742188	404.2299499511719	-16.14943885803223	864.19873046875	37.07197189331055	-172.5620574951172	830.2910766601562	31.50702857971191	-106.9898529052734	951.1228637695312	35.2690315246582	-78.99185943603516	890.62109375	29.3018741607666	116.4816970825195	
474	4.73	893.0562744140625	1121.85986328125	79.31014251708984	757.1943359375	1120.674438476562	79.74195861816406	822.63623046875	1150.80126953125	87.61363983154297	814.8040161132812	1362.953125	-116.1454162597656	822.4275512695312	1298.2119140625	131.1959838867188	799.6542358398438	1592.8798828125	121.868408203125	806.6193237304688	1494.344360351562	-69.26097106933594	893.3133544921875	1406.784423828125	159.6838989257812	699.8922119140625	1567.038696289062	129.3146362304688	628.3148803710938	1555.743530273438	43.50719451904297	565.564208984375	1420.28857421875	65.95088195800781	549.9401245117188	1202.755126953125	56.74694442749023	623.0866088867188	1189.957763671875	107.7664260864258	570.0576782226562	945.7518310546875	-52.97933578491211	569.21875	919.3841552734375	33.24435424804688	544.4197998046875	1086.400024414062	41.24205017089844	587.7918701171875	751.2898559570312	-72.84132385253906	563.2164306640625	844.3021850585938	5.220499038696289	558.2030639648438	856.5145874023438	-64.42184448242188	979.4588012695312	1584.011596679688	60.98186111450195	1045.8564453125	1512.01953125	70.11164855957031	1083.583374023438	1219.599609375	37.01791763305664	988.861572265625	1212.15478515625	42.60619735717773	1088.735595703125	1017.039794921875	-159.6974639892578	1118.808227539062	984.4649047851562	-90.1951904296875	1104.200561523438	1154.37939453125	-2.336472034454346	1089.734985351562	836.0489501953125	-236.4502410888672	1102.981689453125	921.5498657226562	-214.1995391845703	1130.532348632812	898.348388671875	-151.1737365722656	869.5968017578125	1773.748168945312	82.51969146728516	721.6922607421875	1836.2373046875	-68.94359588623047	851.3192138671875	1850.958984375	-77.18275451660156	737.6336059570312	1763.569702148438	99.49944305419922	648.0347290039062	1034.923583984375	-17.47710990905762	1010.871215820312	1031.971435546875	-53.37973022460938	956.7525024414062	1107.689086914062	-131.6107177734375	690.0947265625	1103.294799804688	-122.0274047851562	680.5074462890625	534.640625	-114.7273025512695	653.4769287109375	679.7238159179688	-70.77935791015625	670.3233032226562	37.58909606933594	36.56319046020508	645.31787109375	290.8565368652344	2.116136789321899	743.8629150390625	36.23468017578125	-187.8133850097656	772.7819213867188	38.77970123291016	-104.7126159667969	654.0028076171875	35.23569869995117	-90.87181091308594	725.9138793945312	38.42462158203125	111.4575653076172	968.9705810546875	538.0748901367188	-39.38433837890625	998.4559326171875	816.7726440429688	-72.63320159912109	935.5952758789062	26.6696891784668	56.4013557434082	976.0491333007812	404.5071105957031	-15.9473991394043	864.17578125	37.11742782592773	-172.5283508300781	830.2476806640625	31.3730583190918	-106.8816452026367	951.0722045898438	35.29755401611328	-78.98606109619141	890.5474243164062	29.35939407348633	116.5038757324219	
475	4.74	892.8592529296875	1122.39697265625	77.23421478271484	757.0111694335938	1121.480712890625	77.64117431640625	822.4312744140625	1151.5107421875	85.34841156005859	814.4249877929688	1363.2451171875	-118.2038192749023	821.2100830078125	1298.403198242188	129.9804534912109	798.8138427734375	1593.153076171875	120.0674362182617	806.2484130859375	1494.595092773438	-71.19712829589844	892.0316772460938	1406.804565429688	157.9394836425781	698.9458618164062	1567.406494140625	127.1245346069336	627.66943359375	1556.282958984375	41.07402420043945	564.4080810546875	1420.8017578125	62.80848693847656	548.9326782226562	1203.249145507812	52.65195846557617	621.8917846679688	1190.24609375	103.9871215820312	569.4010009765625	946.6322631835938	-57.83808135986328	568.24462890625	920.0391235351562	28.21131324768066	543.4251098632812	1086.992797851562	36.68249893188477	587.0781860351562	752.2188110351562	-78.29402923583984	562.2962036132812	845.043701171875	-0.3610420823097229	557.573486328125	857.4518432617188	-69.6201171875	978.806396484375	1583.94970703125	59.75954818725586	1044.889770507812	1511.724487304688	69.27375793457031	1081.48095703125	1219.091186523438	37.47309112548828	986.7056274414062	1212.192626953125	42.19301986694336	1087.322631835938	1014.991271972656	-157.6335601806641	1116.681274414062	982.8792724609375	-87.59028625488281	1102.118286132812	1153.579711914062	-1.271641731262207	1088.239501953125	833.2373657226562	-232.7827606201172	1101.65478515625	919.0016479492188	-211.1913604736328	1128.576538085938	896.1705322265625	-147.7447052001953	869.0985717773438	1773.955444335938	81.28866577148438	721.2821655273438	1836.873046875	-70.09215545654297	850.8974609375	1851.563354492188	-78.22720336914062	737.1190185546875	1763.830322265625	98.20969390869141	647.755859375	1035.58740234375	-19.28365707397461	1010.23291015625	1032.013427734375	-55.52773284912109	956.0615844726562	1107.682739257812	-133.5263977050781	689.4293212890625	1103.515014648438	-124.1707153320312	679.5135498046875	534.7886962890625	-111.6821136474609	652.94189453125	680.1351928710938	-68.87343597412109	670.2288208007812	37.31064987182617	36.80429077148438	644.5845336914062	290.6309814453125	3.601150274276733	743.9974365234375	36.15536499023438	-187.8606719970703	772.83154296875	38.7230110168457	-104.5127563476562	653.983154296875	35.26856994628906	-90.71469116210938	725.7651977539062	37.96860504150391	111.7244873046875	968.2813110351562	538.2132568359375	-39.51717376708984	997.8897094726562	816.7423095703125	-73.74677276611328	935.5240478515625	26.78377723693848	56.40706634521484	975.4752807617188	404.7774047851562	-15.87792682647705	864.1492309570312	37.15486526489258	-172.5081481933594	830.2047119140625	31.26130485534668	-106.8049774169922	950.9915771484375	35.33849716186523	-78.98581695556641	890.4442138671875	29.44665336608887	116.5194549560547	
476	4.75	892.6729736328125	1122.956909179688	75.28163909912109	756.8407592773438	1122.33251953125	75.63331604003906	822.2394409179688	1152.34228515625	83.17405700683594	814.1031494140625	1363.586303710938	-120.1979522705078	820.0548095703125	1298.689453125	128.92724609375	797.991943359375	1593.509765625	118.2654876708984	805.9038696289062	1494.914672851562	-73.1180419921875	890.8388671875	1406.951171875	156.2180023193359	698.0276489257812	1567.833740234375	124.9477081298828	627.0584716796875	1556.8720703125	38.65468978881836	563.2642211914062	1421.39404296875	59.67427825927734	547.8753051757812	1203.832641601562	48.50022888183594	620.606689453125	1190.597045898438	100.1966552734375	568.7124633789062	947.6069946289062	-62.76508712768555	567.1652221679688	920.7836303710938	23.05631828308105	542.3451538085938	1087.679809570312	32.05113220214844	586.309814453125	753.2354736328125	-83.80832672119141	561.2686767578125	845.8952026367188	-5.98546028137207	556.9209594726562	858.4786987304688	-74.89636993408203	978.1552734375	1584.038940429688	58.50572967529297	1043.960205078125	1511.60302734375	68.40701293945312	1079.362548828125	1218.752685546875	38.04984664916992	984.5463256835938	1212.42578125	41.89420700073242	1085.890625	1012.977294921875	-155.2958984375	1114.507690429688	981.396240234375	-84.70065307617188	1100.009399414062	1152.921508789062	-0.03347887843847275	1086.68408203125	830.4269409179688	-228.7196197509766	1100.294555664062	916.475341796875	-207.8510284423828	1126.53759765625	894.0596923828125	-143.9613342285156	868.5955200195312	1774.207397460938	80.05535125732422	720.8546142578125	1837.572875976562	-71.21453094482422	850.455810546875	1852.21728515625	-79.25154113769531	736.5918579101562	1764.134033203125	96.92938995361328	647.505126953125	1036.382202148438	-21.04953002929688	1009.610046386719	1032.059326171875	-57.49196243286133	955.4776611328125	1107.75439453125	-135.3351745605469	688.8455200195312	1103.828735351562	-126.2265472412109	678.3958129882812	535.0478515625	-108.6490020751953	652.3051147460938	680.6649780273438	-66.95955657958984	670.0895385742188	37.10073471069336	36.95418930053711	643.8012084960938	290.5229187011719	5.033868312835693	744.0730590820312	36.13799667358398	-187.89501953125	772.84765625	38.71781921386719	-104.3724670410156	653.9526977539062	35.28335571289062	-90.61707305908203	725.5409545898438	37.63541030883789	111.9063720703125	967.5162353515625	538.3685913085938	-39.8270263671875	997.309326171875	816.7359008789062	-74.82897186279297	935.4251098632812	26.94079780578613	56.40411758422852	974.8081665039062	405.0206298828125	-15.95945072174072	864.1185302734375	37.18355941772461	-172.5035247802734	830.1521606445312	31.15104293823242	-106.7468948364258	950.8875122070312	35.38827514648438	-78.98992156982422	890.310302734375	29.56311416625977	116.5256195068359	
